<?xml version="1.0" encoding="utf-8"?>
<svg viewBox="0 13.775 343.645 259.03" xmlns="http://www.w3.org/2000/svg">
  <g id="M" transform="matrix(.6, 0, 0, .6, 2.931224, 19.110243)">
    <path class="cls-1" d="M330.78,504.52c-32.81,9.67-27,37.92-27,37.92-19.55.6-30.81-11.25-42.67-28.74-2.28-3.37-9.69-6.72-14.1-8.49h0c-2-.8-3.36-1.27-3.36-1.27C205.07,486.44,214,430.15,214,430.15c-18.14,18.56-7.29,47.8.46,63.09C153.78,457.62,191.73,374,191.73,374h.06c1.48,13.18,30.24,24.19,69.22,27.73.19,29.49,12.2,53.27,27,53.27s26.8-23.78,27-53.27c39-3.54,67.74-14.55,69.22-27.73h.06s38,83.62-22.69,119.24c7.75-15.29,18.6-44.53.46-63.09,0,0,8.89,56.29-29.63,73.78" transform="translate(-180 -126)" style="fill: rgb(101, 102, 174);"/>
  </g>
  <g id="hat" transform="matrix(.6, 0, 0, .6, 2.931224, 19.110243)">
    <path class="cls-2" d="M287.44,396.56" transform="translate(-180 -126)" style="fill: rgb(237, 28, 36);"/>
    <path class="cls-2" d="M201.22,351.67" transform="translate(-180 -126)" style="fill: rgb(237, 28, 36);"/>
    <path class="cls-2" d="M271.72,139.24" transform="translate(-180 -126)" style="fill: rgb(237, 28, 36);"/>
    <path class="cls-2" d="M374.59,351.47" transform="translate(-180 -126)" style="fill: rgb(237, 28, 36);"/>
    <path class="cls-2" d="M303.85,138.31" transform="translate(-180 -126)" style="fill: rgb(237, 28, 36);"/>
    <path class="cls-3" d="M376.21,354.63a13.9,13.9,0,0,1-4.94,15.63C357.8,380.08,325.6,387,288,387s-69.79-6.91-83.26-16.73a13.9,13.9,0,0,1-4.94-15.65h0s0,0,0,0L270,144l2.63-7.88a13.27,13.27,0,0,1,4.54-6.49,18,18,0,0,1,21.66,0,13.27,13.27,0,0,1,4.54,6.49L306,144l70.21,210.62s0,0,0,0Z" transform="translate(-180 -126)" style="fill: rgb(170, 43, 31);"/>
  </g>
  <text x="135.648" y="174.233" style="white-space: pre; fill: rgb(102,102 , 204); font-family:&quot;Verdana&quot;; font-size: 42px;">Metri</text>
  <text style="fill: rgb(170, 43, 31); font-family: Verdana; font-size: 42px; white-space: pre;" x="239.974" y="174.233">nome</text>
</svg>
