<svg xmlns="http://www.w3.org/2000/svg" viewBox="0 0 215.99 416.46"><defs><style>.cls-1{fill:#fff;}.cls-2{fill:#ed1c24;}.cls-3{fill:#ee3c2e;}</style></defs><g id="M"><path class="cls-1" d="M330.78,504.52c-32.81,9.67-27,37.92-27,37.92-19.55.6-30.81-11.25-42.67-28.74-2.28-3.37-9.69-6.72-14.1-8.49h0c-2-.8-3.36-1.27-3.36-1.27C205.07,486.44,214,430.15,214,430.15c-18.14,18.56-7.29,47.8.46,63.09C153.78,457.62,191.73,374,191.73,374h.06c1.48,13.18,30.24,24.19,69.22,27.73.19,29.49,12.2,53.27,27,53.27s26.8-23.78,27-53.27c39-3.54,67.74-14.55,69.22-27.73h.06s38,83.62-22.69,119.24c7.75-15.29,18.6-44.53.46-63.09,0,0,8.89,56.29-29.63,73.78" transform="translate(-180 -126)"/></g><g id="hat"><path class="cls-2" d="M287.44,396.56" transform="translate(-180 -126)"/><path class="cls-2" d="M201.22,351.67" transform="translate(-180 -126)"/><path class="cls-2" d="M271.72,139.24" transform="translate(-180 -126)"/><path class="cls-2" d="M374.59,351.47" transform="translate(-180 -126)"/><path class="cls-2" d="M303.85,138.31" transform="translate(-180 -126)"/><path class="cls-3" d="M376.21,354.63a13.9,13.9,0,0,1-4.94,15.63C357.8,380.08,325.6,387,288,387s-69.79-6.91-83.26-16.73a13.9,13.9,0,0,1-4.94-15.65h0s0,0,0,0L270,144l2.63-7.88a13.27,13.27,0,0,1,4.54-6.49,18,18,0,0,1,21.66,0,13.27,13.27,0,0,1,4.54,6.49L306,144l70.21,210.62s0,0,0,0Z" transform="translate(-180 -126)"/></g></svg>